<svg xmlns="http://www.w3.org/2000/svg" xmlns:xlink="http://www.w3.org/1999/xlink" width="52" height="55" viewBox="0 0 52 55"><defs><clipPath id="a"><rect width="52" height="55" transform="translate(24 21)" fill="#fff" stroke="#707070" stroke-width="1"/></clipPath></defs><g transform="translate(-24 -21)" clip-path="url(#a)"><path d="M28,27H72a4,4,0,0,1,4,4V72a4,4,0,0,1-4,4H28a4,4,0,0,1-4-4V31A4,4,0,0,1,28,27Z" fill="#fff"/><path d="M72.006,27A4,4,0,0,1,76,31V42H24V31a4,4,0,0,1,3.994-4H35v4a2,2,0,0,0,1.851,1.995L37,33h2a2,2,0,0,0,2-2h0V27H59v4a2,2,0,0,0,1.851,1.995L61,33h2a2,2,0,0,0,2-2h0V27Z" fill="#1dd3b0"/><path d="M39,21a2,2,0,0,1,2,2v8a2,2,0,0,1-2,2H37a2,2,0,0,1-2-2V23a2,2,0,0,1,2-2Zm24,0a2,2,0,0,1,2,2v8a2,2,0,0,1-2,2H61a2,2,0,0,1-2-2V23a2,2,0,0,1,2-2Z" fill="#fff"/></g></svg>