<svg xmlns="http://www.w3.org/2000/svg" xmlns:xlink="http://www.w3.org/1999/xlink" width="48" height="60" viewBox="0 0 48 60"><defs><clipPath id="a"><rect width="48" height="60" transform="translate(26 18)" fill="#fff" stroke="#707070" stroke-width="1"/></clipPath></defs><g transform="translate(-26 -18)" clip-path="url(#a)"><path d="M47.586,60.38l-.369,4.8A2.574,2.574,0,0,0,49.824,68h.351a2.581,2.581,0,0,0,2.607-2.821l-.369-4.8a5,5,0,1,0-4.828,0ZM26,45.99A4,4,0,0,1,30.008,42H69.992A4,4,0,0,1,74,45.99V66A12,12,0,0,1,61.993,78H38.007A12,12,0,0,1,26,66Z" fill="#fff"/><path d="M59,35.563A9.293,9.293,0,0,0,50,26a9.293,9.293,0,0,0-9,9.563V42H59ZM33,35a17,17,0,0,1,34,0v7H33Z" fill="#1dd3b0"/></g></svg>