<svg xmlns="http://www.w3.org/2000/svg" xmlns:xlink="http://www.w3.org/1999/xlink" width="228" height="228" viewBox="0 0 228 228"><defs><clipPath id="a"><rect width="228" height="228" fill="none"/></clipPath></defs><g clip-path="url(#a)"><path d="M53.97,197.93c2.9,0,4.178-1.281,4.178-4.512V169.8H68.565v23.674c0,8.746-5.459,13.425-14.372,13.425A15.36,15.36,0,0,1,44,202.943l5.96-7.13a4.929,4.929,0,0,0,4.011,2.116" transform="translate(-18.92 -73.014)" fill="#fff"/><path d="M131.558,187.789c0,11.586-7.521,18.828-18.438,18.828s-18.438-7.241-18.438-18.828c0-11.531,7.52-18.772,18.438-18.772s18.438,7.241,18.438,18.772m-10.528,0c0-6.35-3.4-9.8-7.91-9.8s-7.91,3.454-7.91,9.8c0,6.406,3.4,9.859,7.91,9.859s7.91-3.454,7.91-9.859" transform="translate(-40.713 -72.677)" fill="#fff"/><path d="M197.493,196.648c0,6.573-4.791,9.915-12.757,9.915h-17.49V169.8h16.488c7.966,0,12.645,4.066,12.645,10.138,0,5.849-4.122,7.242-6.295,7.52v.223a8.868,8.868,0,0,1,7.409,8.968m-16.321-19.385h-3.788v7.3h3.955c2.9,0,4.623-1.115,4.623-3.509,0-2.284-1.727-3.788-4.79-3.788m5.793,18.1c0-2.228-1.839-3.844-4.568-3.844h-5.013V199.1h5.18c2.729,0,4.4-1.226,4.4-3.732" transform="translate(-71.916 -73.014)" fill="#fff"/><path d="M258.331,196.648c0,6.573-4.791,9.915-12.756,9.915h-17.49V169.8h16.487c7.966,0,12.645,4.066,12.645,10.138,0,5.849-4.122,7.242-6.294,7.52v.223a8.868,8.868,0,0,1,7.409,8.968m-16.321-19.385h-3.788v7.3h3.955c2.9,0,4.623-1.115,4.623-3.509,0-2.284-1.726-3.788-4.79-3.788m5.793,18.1c0-2.228-1.839-3.844-4.569-3.844h-5.013V199.1h5.18c2.729,0,4.4-1.226,4.4-3.732" transform="translate(-98.077 -73.014)" fill="#fff"/><path d="M308.319,199.824H297.012l-1.894,6.74h-10.64L296.844,169.8h11.586l12.255,36.765H310.157Zm-2.061-7.465-2.451-8.857a39.706,39.706,0,0,1-1-4.457h-.223a43.855,43.855,0,0,1-1.059,4.512l-2.45,8.8Z" transform="translate(-122.326 -73.014)" fill="#fff"/></g></svg>