<svg xmlns="http://www.w3.org/2000/svg" xmlns:xlink="http://www.w3.org/1999/xlink" width="64" height="64" viewBox="0 0 64 64"><defs><clipPath id="a"><rect width="64" height="64" transform="translate(18 18)" fill="#fff" stroke="#707070" stroke-width="1"/></clipPath></defs><g transform="translate(-18 -18)" clip-path="url(#a)"><circle cx="32" cy="32" r="32" transform="translate(18 18)" fill="#fff"/><path d="M50,52c10.6,0,16.251,5.183,16.965,11.461l.035.352V66.6A1.476,1.476,0,0,1,65.454,68H34.545A1.476,1.476,0,0,1,33,66.6V63.813l.035-.352C33.749,57.183,39.4,52,50,52Zm0-23A10,10,0,1,1,40,39,10,10,0,0,1,50,29Z" fill="#1dd3b0"/></g></svg>