<svg xmlns="http://www.w3.org/2000/svg" xmlns:xlink="http://www.w3.org/1999/xlink" width="68" height="47" viewBox="0 0 68 47"><defs><clipPath id="a"><rect width="68" height="47" transform="translate(16 26)" fill="#fff" stroke="#707070" stroke-width="1"/></clipPath></defs><g transform="translate(-16 -26)" clip-path="url(#a)"><path d="M74.129,26a3.929,3.929,0,0,1,3.866,3.788l.005.205V67h4a2,2,0,0,1,2,2v2a2,2,0,0,1-2,2H18a2,2,0,0,1-2-2V69a2,2,0,0,1,2-2h4V29.993a3.944,3.944,0,0,1,3.672-3.988l.2-.005Z" fill="#fff"/><path d="M28.917,31H71.083A1.93,1.93,0,0,1,73,32.943V63.057A1.93,1.93,0,0,1,71.083,65H28.917A1.93,1.93,0,0,1,27,63.057V32.943A1.93,1.93,0,0,1,28.917,31Z" fill="#1dd3b0"/></g></svg>